<svg xmlns="http://www.w3.org/2000/svg" version="1.1" xmlns:xlink="http://www.w3.org/1999/xlink" xmlns:svgjs="http://svgjs.dev/svgjs" width="2000" height="3406" viewBox="0 0 2000 3406"><g transform="matrix(1,0,0,1,-1.3992658821946407,1.3789473684209952)"><svg viewBox="0 0 145 247" data-background-color="#c8c8c8" preserveAspectRatio="xMidYMid meet" height="3406" width="2000" xmlns="http://www.w3.org/2000/svg" xmlns:xlink="http://www.w3.org/1999/xlink"><g id="tight-bounds" transform="matrix(1,0,0,1,0.10144677645911315,-0.09999999999999432)"><svg viewBox="0 0 144.79710644708177 247.2" height="247.2" width="144.79710644708177"><g><svg viewBox="0 0 373.66940599455035 637.9345515140608" height="247.2" width="144.79710644708177"><g><rect width="373.66940599455035" height="22.292751110399998" x="0" y="258.61206849326084" fill="#000000" opacity="1" stroke-width="0" stroke="transparent" fill-opacity="1" class="rect-qz-0" data-fill-palette-color="primary" rx="1%" id="qz-0" data-palette-color="#000000"></rect></g><g><rect width="373.66940599455035" height="22.292751110399998" x="0" y="310.08381320366084" fill="#000000" opacity="1" stroke-width="0" stroke="transparent" fill-opacity="1" class="rect-qz-1" data-fill-palette-color="primary" rx="1%" id="qz-1" data-palette-color="#000000"></rect></g><g transform="matrix(1,0,0,1,0.9295258855585757,390.73455151406085)"><svg viewBox="0 0 371.8103542234332 247.2" height="247.2" width="371.8103542234332"><g id="textblocktransform"><svg viewBox="0 0 371.8103542234332 247.2" height="247.2" width="371.8103542234332" id="textblock"><g><svg viewBox="0 0 371.8103542234332 247.2" height="247.2" width="371.8103542234332"><g transform="matrix(1,0,0,1,0,0)"><svg width="371.8103542234332" viewBox="0.85 -36.2 55.199999999999996 36.7" height="247.2" data-palette-color="#000000"><path d="M15.4-0.05L15.4-0.05 12.55-0.1Q11.95-0.1 11.35-0.1L11.35-0.1 2.25 0.35Q1.5 0.35 1.5-0.15L1.5-0.15Q1.5-0.3 1.65-0.85L1.65-0.85Q2.15-2 2.38-8.15 2.6-14.3 2.6-19.38 2.6-24.45 2.4-27.6L2.4-27.6Q2.1-32.35 1.4-33.3L1.4-33.3Q0.85-34 0.85-34.2L0.85-34.2Q0.85-35 3.55-35.6 6.25-36.2 7.43-36.2 8.6-36.2 8.9-36.08 9.2-35.95 9.2-35.55 9.2-35.15 9-33L9-33Q8.5-26.65 8.5-18.23 8.5-9.8 8.9-4.75L8.9-4.75Q8.9-4.2 9.85-3.8 10.8-3.4 12.2-3.4L12.2-3.4Q17.1-3.4 17.1-10.95L17.1-10.95Q17.1-13.05 16.88-13.55 16.65-14.05 16.65-14.2L16.65-14.2Q16.65-14.7 17.35-14.7L17.35-14.7Q17.9-14.7 18.82-14.15 19.75-13.6 20.35-12.78 20.95-11.95 21.45-10.18 21.95-8.4 21.95-6L21.95-6Q21.95-0.05 20.5-0.05L20.5-0.05Q17.95-0.05 15.4-0.05ZM25-19.45L25-19.45 24.75-28.9Q24.75-31.15 24.25-32.45 23.75-33.75 23.75-33.85L23.75-33.85Q23.75-34.95 27.12-35.55 30.5-36.15 32.27-36.15 34.05-36.15 34.2-35.3L34.2-35.3Q37.35-21.25 39.5-15.8L39.5-15.8Q39.75-15.2 40.02-15.2 40.3-15.2 40.5-15.65L40.5-15.65Q43.85-25.1 46.4-34.35L46.4-34.35Q46.6-34.95 47.4-35.27 48.2-35.6 50.17-35.9 52.15-36.2 54.1-36.2 56.05-36.2 56.05-35.4L56.05-35.4Q56.05-35.35 55.9-34.63 55.75-33.9 55.6-32.85 55.45-31.8 55.25-30.3L55.25-30.3Q54.8-26.85 54.67-22.38 54.55-17.9 54.55-13.4L54.55-13.4 54.65-8.15Q54.65-4.55 55.12-3.03 55.6-1.5 55.6-1.28 55.6-1.05 55.25-0.75L55.25-0.75Q53.7 0.5 50.55 0.5L50.55 0.5Q48.55 0.5 48.3-0.85L48.3-0.85Q48.15-1.55 48.15-3.08 48.15-4.6 48.45-12.45 48.75-20.3 48.75-23.88 48.75-27.45 48.35-27.45L48.35-27.45Q48.3-27.45 48.3-27.43 48.3-27.4 48.15-27.35 48-27.3 47.37-25.8 46.75-24.3 44.9-18.4 43.05-12.5 41.55-7.38 40.05-2.25 39.9-1.85L39.9-1.85Q39.35-0.5 37.8-0.5L37.8-0.5Q37.05-0.5 36.6-1.05L36.6-1.05Q35-8.45 30.9-22.2L30.9-22.2 29.5-26.75Q29.4-27 29.3-27L29.3-27Q29.05-27 28.95-26.65L28.95-26.65Q28.75-23.4 28.75-13.88 28.75-4.35 29.45-1.85L29.45-1.85Q29.5-1.75 29.5-1.55L29.5-1.55Q29.5-0.5 27.85-0.03 26.2 0.45 24.87 0.45 23.55 0.45 23.55-0.15L23.55-0.15Q23.55-0.2 23.8-0.95L23.8-0.95Q24.55-3.5 24.77-8.35 25-13.2 25-19.45Z" opacity="1" transform="matrix(1,0,0,1,0,0)" fill="#000000" class="wordmark-text-0" data-fill-palette-color="primary" id="text-0"></path></svg></g></svg></g></svg></g></svg></g><g transform="matrix(1,0,0,1,71.94530354223431,0)"><svg viewBox="0 0 229.77879891008172 200.25408129326084" height="200.25408129326084" width="229.77879891008172"><g><svg xmlns="http://www.w3.org/2000/svg" xmlns:xlink="http://www.w3.org/1999/xlink" version="1.0" x="0" y="0" viewBox="1.118 4.1185758 47.921 41.76353899999999" enable-background="new 0 0 50 50" xml:space="preserve" height="200.25408129326084" width="229.77879891008172" class="icon-icon-0" data-fill-palette-color="accent" id="icon-0"><g fill="#000000" data-fill-palette-color="accent"><g fill="#000000" data-fill-palette-color="accent"><polygon fill="#000000" points="10.821,24.951 21,32.193 21,39.035 1.118,24.891 21,11.118 21,17.9   " data-fill-palette-color="accent"></polygon></g><g fill="#000000" data-fill-palette-color="accent"><polygon fill="#000000" points="49.039,25.277 35.815,16.063 34.219,21.712 39.475,25.338 31.411,30.97 29,38.79 29,39.424   " data-fill-palette-color="accent"></polygon></g><rect x="25.577" y="3.983" transform="matrix(0.9606 0.278 -0.278 0.9606 8.0575 -6.8179)" fill="#000000" width="4.981" height="42.035" data-fill-palette-color="accent"></rect></g></svg></g></svg></g><g></g></svg></g><defs></defs></svg><rect width="144.79710644708177" height="247.2" fill="none" stroke="none" visibility="hidden"></rect></g></svg></g></svg>